PathFileType	4	(X/Y/Z)	/Users/niels/Desktop/University/Third Semester/Perception and Action/Exam/Gymnastics Motion Tracking/Code for Gym Tracking/Analyzed Data/Start Salto/stsalto_bad_id2_1_Sports2D/stsalto_bad_id2_1_Sports2D_px_person00.trc
DataRate	CameraRate	NumFrames	NumMarkers	Units	OrigDataRate	OrigDataStartFrame	OrigNumFrames
29.84771573604061	29.84771573604061	7	22	m	29.84771573604061	24	197
Frame#	Time	Hip			RHip			RKnee			RAnkle			RBigToe			RSmallToe			RHeel			LHip			LKnee			LAnkle			LBigToe			LSmallToe			LHeel			Neck			Head			Nose			RShoulder			RElbow			RWrist			LShoulder			LElbow			LWrist		
		X1	Y1	Z1	X2	Y2	Z2	X3	Y3	Z3	X4	Y4	Z4	X5	Y5	Z5	X6	Y6	Z6	X7	Y7	Z7	X8	Y8	Z8	X9	Y9	Z9	X10	Y10	Z10	X11	Y11	Z11	X12	Y12	Z12	X13	Y13	Z13	X14	Y14	Z14	X15	Y15	Z15	X16	Y16	Z16	X17	Y17	Z17	X18	Y18	Z18	X19	Y19	Z19	X20	Y20	Z20	X21	Y21	Z21	X22	Y22	Z22
24	0.8040816326530611	0.5924078720480433	-0.535801214941956	0.0	0.5950801418993712	-0.5370886902497949	0.0	0.6083180774772163	-0.6611006754680138	0.0	0.5740256249516765	-0.783827346770405	0.0	0.606582021300627	-0.8250462077145472	0.0	0.5978602067523481	-0.8262540851605954	0.0	0.558779655036495	-0.7957184537860169	0.0	0.5915097225654664	-0.5362602540215683	0.0	0.6049482185730243	-0.6589498582193444	0.0	0.5739219069826913	-0.7766549876448507	0.0	0.6071266739165185	-0.8110658487753167	0.0	0.6001022804013711	-0.8084352085736053	0.0	0.5557278536024363	-0.7869158756569992	0.0	0.6848364960724463	-0.41055945912536446	0.0	0.7582846904446894	-0.38389242300578746	0.0	0.7380885521125155	-0.4084273154875749	0.0	0.6887541317126441	-0.4123078350768177	0.0	0.7647356372528725	-0.39841470021504477	0.0	0.8306479044357252	-0.37542047694706066	0.0	0.6765042049116985	-0.4074423678532739	0.0	0.7482112125585336	-0.3935453788771679	0.0	0.8153122773490692	-0.3750053263476339	0.0
25	0.8375850340136054	0.604072119791661	-0.5199666110900292	0.0	0.6066546111010185	-0.5212570839498434	0.0	0.612937466006587	-0.646584946822356	0.0	0.5779053428704892	-0.7681228464774082	0.0	0.6068128643297729	-0.8157477188424811	0.0	0.5985108224638275	-0.8157286551380805	0.0	0.5629410124979708	-0.7783127573083848	0.0	0.6035615981084859	-0.5204181057600157	0.0	0.6094219505891278	-0.6445602948119291	0.0	0.5775187124290476	-0.7613382335280097	0.0	0.6078265435153982	-0.8024950269263437	0.0	0.6017498015123066	-0.7992577052160756	0.0	0.5599433692482219	-0.7702527659462327	0.0	0.7036466406780985	-0.39851323065294536	0.0	0.7819874152588577	-0.3824904898678788	0.0	0.7578182986019266	-0.40303231570252773	0.0	0.7084896256940383	-0.40022636026636654	0.0	0.7840626583045605	-0.39819678105063083	0.0	0.8535720302646173	-0.38458536577561725	0.0	0.6961615828311337	-0.39418868247726785	0.0	0.7727590736178749	-0.3918147160809868	0.0	0.8431297475222855	-0.3830613747841416	0.0
26	0.8710884353741496	0.6149980974978136	-0.5045925588228779	0.0	0.6174032798687528	-0.5060901170288317	0.0	0.6196399277538223	-0.6317295443177661	0.0	0.5820755347314619	-0.7515942695355352	0.0	0.6066078681345015	-0.804294403349489	0.0	0.598799229827473	-0.802959158427313	0.0	0.5674690136144511	-0.7596591963097488	0.0	0.6148272712320446	-0.5051269570687209	0.0	0.6158441581531735	-0.6297843590781061	0.0	0.5813049800983691	-0.744862777853303	0.0	0.6077854828520438	-0.7913147402816604	0.0	0.6026010576069828	-0.7873619443956807	0.0	0.56456532716176	-0.7519629905179891	0.0	0.72186681243051	-0.3879534933249862	0.0	0.8035131297755471	-0.3814501367677747	0.0	0.7759775918659251	-0.39861335250073326	0.0	0.7275001355002231	-0.3900724580758498	0.0	0.8015545101025662	-0.3997533985121272	0.0	0.8728952604573181	-0.3954683626409669	0.0	0.7145277078698108	-0.3830019622944097	0.0	0.793271104013279	-0.3924081617181318	0.0	0.8638376714078556	-0.39254860481466197	0.0
27	0.9045918367346938	0.6256306671415862	-0.4899768390066929	0.0	0.6278275375884204	-0.491828569819913	0.0	0.6283538988800655	-0.6171455538151621	0.0	0.5861752675080338	-0.7348045297320751	0.0	0.6058758084948572	-0.790809580662877	0.0	0.5985489096755338	-0.7882005533026721	0.0	0.5718279608532079	-0.7405933106270463	0.0	0.6256659655867621	-0.4905954758557414	0.0	0.6242518651718788	-0.6151842115983802	0.0	0.5846477488762641	-0.7273889548893282	0.0	0.606828148366193	-0.7772753841357681	0.0	0.6023408160505039	-0.7725753973055599	0.0	0.5687859860722794	-0.7325735169547649	0.0	0.7397719835611227	-0.3793514441212941	0.0	0.8227374006979209	-0.38013110414409385	0.0	0.7925617200324665	-0.39507648927334377	0.0	0.7457705592724884	-0.3823420185201504	0.0	0.8173880348483751	-0.4029079067960141	0.0	0.8889214832355892	-0.40761510597852885	0.0	0.7318918327969083	-0.3742422298345254	0.0	0.8105684556043999	-0.39425770824395634	0.0	0.8783772711499921	-0.4018081729176837	0.0
28	0.938095238095238	0.6360404390565534	-0.47625822196590134	0.0	0.6381198751289056	-0.47850733649841776	0.0	0.6384538263457087	-0.6033024242078512	0.0	0.5900833049772344	-0.718245751996373	0.0	0.6047309365951381	-0.7756153551012624	0.0	0.5978500788843063	-0.7719268261901351	0.0	0.5757607297730339	-0.7219967534201769	0.0	0.6361768424216679	-0.47681842481251396	0.0	0.6342370943184192	-0.6011993363181019	0.0	0.5871318094042315	-0.7091653657473921	0.0	0.6048625832018742	-0.7607046835374163	0.0	0.6008961368091218	-0.7553310669276627	0.0	0.5721305480707263	-0.7127808668284252	0.0	0.7571758630371945	-0.37293593220095467	0.0	0.8398198629193869	-0.37821120104893236	0.0	0.8075832778530494	-0.3923064561640511	0.0	0.7629593864475162	-0.3771243430899763	0.0	0.8315452379618019	-0.40743572773617437	0.0	0.9019609810181418	-0.42057115198777867	0.0	0.7483296286870607	-0.3675889283772203	0.0	0.8250424827257785	-0.39534062052740815	0.0	0.8874354905333877	-0.40841204174903784	0.0
29	0.9715986394557822	0.6460975154202913	-0.4634255031017708	0.0	0.6481937771027834	-0.4660229727253167	0.0	0.6490949447897437	-0.5904995022682901	0.0	0.5938412822979054	-0.702362349796615	0.0	0.6034448606766578	-0.7592179644952946	0.0	0.5970137216193501	-0.7547859892970455	0.0	0.5792775928350354	-0.7047043293302676	0.0	0.6463509349704434	-0.4637080431864769	0.0	0.6452142567903677	-0.588152247720832	0.0	0.5886168318758203	-0.6905285347289993	0.0	0.6017641031019338	-0.7424599755730721	0.0	0.5983440737404584	-0.7365485991116855	0.0	0.5743905674414105	-0.6931047609665776	0.0	0.7736610481004031	-0.3685839954630876	0.0	0.855058615355942	-0.3758978681152405	0.0	0.8212007863334896	-0.3902951113538445	0.0	0.7786711912264058	-0.374057128918661	0.0	0.8438152613833138	-0.41299690937292977	0.0	0.9121474222336048	-0.4338193761677891	0.0	0.7638368443092363	-0.3623252258784763	0.0	0.8366509110429836	-0.3934964163216228	0.0	0.8912367977592331	-0.4099193576710399	0.0
30	1.0051020408163265	0.6557005050444423	-0.451444152142535	0.0	0.6578338593813483	-0.45427919156710506	0.0	0.6594911671404108	-0.5788445134947231	0.0	0.5975527863915433	-0.687496194612221	0.0	0.6023485407778827	-0.7422737131376852	0.0	0.5964290375014283	-0.7374930222090442	0.0	0.5825923748358075	-0.689248742162427	0.0	0.6561782866855117	-0.4512554533170898	0.0	0.6565478030753552	-0.5762403505929709	0.0	0.5892260551546644	-0.67183695886679	0.0	0.5974032971644064	-0.7236250523502671	0.0	0.5948052383250544	-0.7172583924620042	0.0	0.5755986613718083	-0.673768715583931	0.0	0.7888804132846164	-0.3658236201700714	0.0	0.8687258944601385	-0.37379411577680116	0.0	0.8336689827132736	-0.38906240785651175	0.0	0.7927277662531007	-0.37242784070288926	0.0	0.8539643185477266	-0.419134211293491	0.0	0.9194688760971156	-0.44679783405255746	0.0	0.7784677759823185	-0.35774841283519365	0.0	0.8452957477010288	-0.38757528268594166	0.0	0.8902071660347274	-0.4054051929856737	0.0
